<?xml version="1.0" encoding="utf-8"?>
<!-- Generator: Adobe Illustrator 24.1.0, SVG Export Plug-In . SVG Version: 6.00 Build 0)  -->
<svg version="1.1" id="Layer_1" xmlns="http://www.w3.org/2000/svg" xmlns:xlink="http://www.w3.org/1999/xlink" x="0px" y="0px"
	 viewBox="0 0 150 150" style="enable-background:new 0 0 150 150;" xml:space="preserve">
<style type="text/css">
	.st0{fill:#FFFFFF;}
</style>
<g>
	<path class="st0" d="M35.4,133.2c0,0,36.2,15.8,81.4,0v-22.6c0,0-36.2,9-81.4,0V133.2z"/>
	<path class="st0" d="M35.4,106.1c0,0,38.4,11.3,81.4,0V81.2c0,0-33.9,9.1-81.4,0V106.1z"/>
	<path class="st0" d="M35.4,76.5c0,0,38.4,11.3,81.4,0V51.6c0,0-33.9,9-81.4,0V76.5z"/>
	<path class="st0" d="M35.4,22.2v24.9c0,0,38.4,11.3,81.4,0V22.2C116.8,22.2,82.9,31.3,35.4,22.2z M94.2,38.2H82.9
		c-1.2,0-2.3-1-2.3-2.3c0-1.2,1-2.3,2.3-2.3h11.3c1.2,0,2.3,1,2.3,2.3C96.5,37.2,95.5,38.2,94.2,38.2z"/>
	<ellipse class="st0" cx="76.1" cy="16.8" rx="40.7" ry="5.6"/>
</g>
</svg>
