<svg id="Layer_1" data-name="Layer 1" xmlns="http://www.w3.org/2000/svg" viewBox="0 0 81.42 129.17"><path d="M35.42,133.23s36.18,15.83,81.42,0V110.62s-36.19,9-81.42,0Z" transform="translate(-35.42 -11.1)"/><path d="M35.42,106.09s38.45,11.31,81.42,0V81.21s-33.93,9.05-81.42,0Z" transform="translate(-35.42 -11.1)"/><path d="M35.42,76.52s38.45,11.31,81.42,0V51.64s-33.93,9-81.42,0Z" transform="translate(-35.42 -11.1)"/><path d="M35.42,22.24V47.12s38.45,11.31,81.42,0V22.24S82.91,31.29,35.42,22.24Zm58.8,16H82.91a2.26,2.26,0,1,1,0-4.52H94.22a2.26,2.26,0,1,1,0,4.52Z" transform="translate(-35.42 -11.1)"/><ellipse cx="40.71" cy="5.65" rx="40.71" ry="5.65"/></svg>