<?xml version="1.0" encoding="utf-8"?>
<!-- Generator: Adobe Illustrator 24.1.2, SVG Export Plug-In . SVG Version: 6.00 Build 0)  -->
<svg version="1.1" id="Layer_1" xmlns="http://www.w3.org/2000/svg" xmlns:xlink="http://www.w3.org/1999/xlink" x="0px" y="0px"
	 viewBox="0 0 69.1 590.2" style="enable-background:new 0 0 69.1 590.2;" xml:space="preserve">
<style type="text/css">
	.st0{fill:none;}
	.st1{fill:#DDDBDC;}
	.st2{fill:#F0EFEF;}
	.st3{fill:#060304;}
	.st4{fill:#C3C3C3;}
</style>
<rect id="beerflow" x="25.7" y="169.3" class="st0" width="17.8" height="1116.1"/>
<circle class="st1" cx="34.5" cy="139.8" r="34.5"/>
<circle class="st2" cx="34.5" cy="139.8" r="20.6"/>
<path id="handle" class="st3" d="M50.9,56.4c-0.1-2.3-7.2-4.2-15.8-4.2h-1.2c-8.7,0-15.8,1.9-15.9,4.2v7.9c0,0.1,0,0.2,0,0.3l0,0
	v5.5c0,0.7,2.2,1.3,4.9,1.3l0,0H46c2.7,0,4.9-0.6,4.9-1.3v-5.5h-0.1c0-0.1,0.1-0.2,0.1-0.3V56.4z"/>
<rect x="23.4" y="71.3" class="st4" width="22.2" height="17.6"/>
<rect x="19.8" y="88.9" class="st1" width="29.4" height="12.2"/>
<path class="st4" d="M47,101.1H22.1v83.7v0.6v4.1c0,0.4,0.3,0.7,0.7,0.7H25c0.4,0,0.7-0.3,0.7-0.7V187c1.9-0.4,5.4-1.6,9.3-1.6
	c3.5,0,6.4,0.9,8.3,1.4v2.8c0,0.4,0.3,0.7,0.7,0.7h2.2c0.4,0,0.7-0.3,0.7-0.7v-4.1l0,0L47,101.1L47,101.1z"/>
</svg>
