<?xml version="1.0" encoding="utf-8"?>
<!-- Generator: Adobe Illustrator 24.1.2, SVG Export Plug-In . SVG Version: 6.00 Build 0)  -->
<svg version="1.1" id="Layer_1" xmlns="http://www.w3.org/2000/svg" xmlns:xlink="http://www.w3.org/1999/xlink" x="0px" y="0px"
	 viewBox="0 0 69.1 190.2" style="enable-background:new 0 0 69.1 190.2;" xml:space="preserve">
<style type="text/css">
	.st0{fill:#DDDBDC;}
	.st1{fill:#F0EFEF;}
	.st2{fill:#060304;}
	.st3{fill:#C3C3C3;}
</style>
<circle class="st0" cx="34.5" cy="139.8" r="34.5"/>
<circle class="st1" cx="34.5" cy="139.8" r="20.6"/>
<path class="st2" d="M50.9,15.6C50.8,6.9,43.7-0.1,35.1,0h-1.2C25.2-0.1,18.1,6.9,18,15.6v29.6c0,0.3,0,0.6,0,1l0,0v20.3
	c0,2.7,2.2,4.9,4.9,4.9c0,0,0,0,0,0H46c2.7,0,4.9-2.2,4.9-4.9V46.1h-0.1c0-0.3,0.1-0.6,0.1-1V15.6z"/>
<rect x="23.4" y="71.3" class="st3" width="22.2" height="17.6"/>
<rect x="19.8" y="88.9" class="st0" width="29.4" height="12.2"/>
<path class="st3" d="M47,101.1H22.1v83.7v0.6v4.1c0,0.4,0.3,0.7,0.7,0.7H25c0.4,0,0.7-0.3,0.7-0.7V187c1.9-0.4,5.4-1.6,9.3-1.6
	c3.5,0,6.4,0.9,8.3,1.4v2.8c0,0.4,0.3,0.7,0.7,0.7h2.2c0.4,0,0.7-0.3,0.7-0.7v-4.1h0V101.1z"/>
</svg>
